<?xml version="1.0" encoding="UTF-8" standalone="no"?>
<!-- Created with Inkscape (http://www.inkscape.org/) -->

<svg
   width="605mm"
   height="120mm"
   viewBox="0 0 605 120"
   version="1.1"
   id="svg1"
   xml:space="preserve"
   inkscape:version="1.3.2 (091e20e, 2023-11-25)"
   sodipodi:docname="baseline-dark.svg"
   inkscape:export-filename="baseline-1.png"
   inkscape:export-xdpi="124"
   inkscape:export-ydpi="124"
   xmlns:inkscape="http://www.inkscape.org/namespaces/inkscape"
   xmlns:sodipodi="http://sodipodi.sourceforge.net/DTD/sodipodi-0.dtd"
   xmlns="http://www.w3.org/2000/svg"
   xmlns:svg="http://www.w3.org/2000/svg"><sodipodi:namedview
     id="namedview1"
     pagecolor="#ffffff"
     bordercolor="#000000"
     borderopacity="0.25"
     inkscape:showpageshadow="2"
     inkscape:pageopacity="0.0"
     inkscape:pagecheckerboard="0"
     inkscape:deskcolor="#d1d1d1"
     inkscape:document-units="mm"
     inkscape:zoom="0.28818207"
     inkscape:cx="971.60798"
     inkscape:cy="628.07516"
     inkscape:window-width="1920"
     inkscape:window-height="1021"
     inkscape:window-x="0"
     inkscape:window-y="31"
     inkscape:window-maximized="0"
     inkscape:current-layer="layer1" /><defs
     id="defs1" /><g
     inkscape:label="Calque 1"
     inkscape:groupmode="layer"
     id="layer1"><path
       style="fill:#fefefe;stroke:none;stroke-width:0.377627;fill-opacity:1;stroke-opacity:1"
       d="M 47.450388,51.292256 C 39.786696,49.93568 26.901792,52.37588 21.63372,45.081656 18.936385,41.346897 22.945524,37.215573 25.354992,34.556637 32.203236,26.999325 42.680712,22.015425 51.919345,18.027141 78.414486,6.5892733 112.51094,-0.31593382 141.29841,3.6533173 c 4.42183,0.609694 8.62546,1.48905 12.84824,2.957111 14.3938,5.0040687 16.75976,15.8312847 7.69383,27.3646287 -10.06627,12.805955 -25.27577,25.972247 -41.21098,29.956055 -16.72204,4.180512 -34.364842,7.968552 -50.275726,14.73348 0.0318,-4.679004 3.194784,-9.666492 4.916364,-13.96548 4.265172,-10.650612 8.90525,-21.147491 13.06807,-31.841291 1.00449,-2.58042 6.03534,-13.5951 2.97671,-15.690468 -2.11454,-1.448616 -3.37703,2.0148 -3.80688,3.400848 -1.94536,6.272676 -4.1007,12.330228 -6.540504,18.434436 -3.806184,9.522815 -7.798032,18.973679 -11.619804,28.489571 -1.523603,3.793692 -2.733779,9.841416 -5.785319,12.667212 -2.63109,2.436468 -7.235922,3.2772 -10.52583,4.541364 -7.518265,2.888963 -15.023749,5.842927 -22.344769,9.206867 -8.601012,3.95209 -17.843615,8.108239 -25.1378635,14.229279 -2.409264,2.02176 -6.656784,5.93868 -4.53102,9.54308 2.045076,3.46758 7.521468,2.11078 10.6758365,1.78706 10.382915,-1.06553 21.070295,-5.25855 30.724055,-9.07238 21.102139,-8.33668 41.530508,-17.673199 61.44811,-28.538722 10.39333,-5.669796 20.27675,-14.324856 31.28266,-18.592188 8.20678,-3.182016 18.17742,-3.851952 26.81373,-5.487924 12.96791,-2.45652 26.07152,-3.799368 39.10334,-5.694804 3.13973,-0.456672 11.26506,0.479328 12.28963,-3.023268 -24.37897,0.09696 -48.61796,6.650868 -72.6205,10.055136 C 150.91071,47.790848 171.03063,39.446733 172.91415,22.244061 174.76329,5.3552723 151.47519,2.1367543 139.62255,0.83909628 105.75228,-2.8690813 63.309319,5.9090013 34.043532,23.296533 27.48522,27.192993 13.692133,35.136585 16.505701,44.587376 c 2.407008,8.085168 15.823931,8.3016 22.565399,8.37654 2.837004,0.03156 6.420132,0.700548 8.379288,-1.67166 m 473.709072,2.793096 v 0.558624 l 8.37929,1.117236 c -4.5542,9.982128 -6.38421,24.624156 -18.99306,26.813724 l 3.35172,-8.937912 c -7.20252,-0.679668 -9.94536,15.768383 1.67388,10.62156 1.62962,-0.72186 3.04598,-1.748568 4.47093,-2.800896 1.48536,8.989333 12.21348,3.749219 16.75858,0.558624 1.38003,5.762015 8.70537,2.8233 11.73099,0 h 0.55863 c 3.47738,4.094867 9.34009,4.124447 13.2571,0.377544 2.11815,-2.02614 4.7317,-6.36618 2.09987,-8.977488 -7.65762,-7.59792 -16.67919,9.344976 -24.29489,8.599944 l 3.35172,-8.937912 c -5.51671,1.252956 -10.55757,12.710099 -17.17937,10.106628 -2.71362,-1.066896 -1.51749,-4.723188 -0.91814,-6.754908 1.63655,-5.547432 4.44302,-16.401924 8.89038,-20.253444 2.80534,-2.429472 7.50283,-1.235976 10.88299,-2.091324 l -10.05514,-1.117236 2.79309,-11.731007 -7.48674,10.717595 -9.27183,2.130648 m -36.86887,27.372336 c -0.0907,-2.439312 1.94722,-5.86806 1.08358,-8.09454 -1.39989,-3.608916 -9.45158,2.524908 -11.13873,3.625596 l 0.55862,-3.35172 c -4.78845,-1.099152 -8.35392,2.208072 -12.28962,4.468956 2.77506,-13.771068 -4.99821,2.347944 -10.61377,4.468956 -0.30068,-1.536528 0.28783,-4.940628 -0.74715,-6.087384 -2.13305,-2.363412 -9.46625,5.028336 -11.54247,6.087384 1.14175,-3.358536 3.53304,-6.458388 6.7035,-8.187768 1.25158,-0.682692 5.0631,-0.15954 5.52707,-1.582332 1.60822,-4.931484 -8.89477,-0.311148 -9.97345,0.479688 -2.35204,1.724412 -8.92133,7.872396 -5.31681,10.998576 3.43209,2.976611 8.78435,-1.323204 11.43898,-3.384024 2.51389,10.895845 16.8906,-1.040124 21.22753,-3.35172 l -1.42219,2.826744 c -1.19047,2.489292 -0.6696,5.056139 2.54567,3.379224 4.02302,-2.098176 7.12365,-5.727156 11.16614,-7.881828 -2.86346,7.840776 0.72613,9.718691 7.82068,6.144816 v 2.793096 c 5.49232,-0.657348 9.25458,2.479787 13.86219,-2.293092 5.13345,-5.31756 6.52055,-16.93206 -3.80706,-13.348248 l 11.17239,-26.255099 c -4.85825,1.134924 -6.23588,7.717571 -8.2399,11.731007 -4.887,9.78714 -7.98802,21.4104 -18.0152,26.813712 M 332.34617,61.347404 c 0.88775,3.018684 2.60176,5.52858 5.58619,6.703428 -0.6279,-3.451956 -1.8527,-6.199176 -5.58619,-6.703428 m -56.97915,8.379288 c 6.36417,-1.452204 3.56487,-8.592144 0.82831,-2.81166 -0.43199,0.912468 -0.61559,1.834596 -0.82831,2.81166 m 237.97176,0 c 6.35164,-1.434936 3.6717,-8.549856 0.91867,-2.81166 -0.43365,0.903876 -0.66138,1.849572 -0.91867,2.81166 m 29.60682,-0.558624 c 3.39822,0.31896 4.52384,-2.156496 5.58619,-5.027568 -3.24247,-0.10056 -4.39033,2.323824 -5.58619,5.027568 M 258.04982,82.016312 v -4.4709 c -3.4e-4,-0.924888 0.022,-1.854132 -0.0166,-2.77842 -0.0634,-1.524168 -1.36283,-4.849056 -2.81649,-2.0145 -1.1648,2.2713 -1.38812,10.21332 0.56476,12.078756 2.24013,2.139803 5.5131,-0.69114 7.04066,-2.31216 3.74658,-3.975804 11.27362,-11.463564 10.86891,-17.261352 l -15.64134,16.758576 m 113.95832,0 v -4.4709 c -3.5e-4,-0.924888 0.022,-1.85412 -0.0166,-2.77842 -0.0634,-1.524156 -1.36279,-4.849092 -2.81649,-2.0145 -1.16479,2.271288 -1.38812,10.21332 0.56477,12.078756 2.24013,2.139815 5.51309,-0.691128 7.04066,-2.31216 3.74657,-3.975792 11.27362,-11.463564 10.8689,-17.261352 L 372.00803,82.016312 M 121.74663,66.374972 105.54668,76.988744 61.415761,99.333511 c -0.330576,-4.45818 4.075986,-14.682839 7.891349,-17.189843 5.116092,-3.36168 13.062456,-4.827804 18.922368,-6.510408 11.13421,-3.197052 22.176702,-6.831888 33.517152,-9.258288 m 294.95093,8.937912 -10.61377,3.351708 c -2.60433,-6.360588 -1.36677,-6.753168 4.46896,-7.26204 -2.10171,-3.470472 -8.23619,-4.358976 -9.28821,0.58722 -0.61616,2.896956 1.70897,6.233532 -0.0299,8.821392 -1.94535,2.895156 -7.88258,4.336403 -7.88258,8.428955 0,4.857772 9.11646,2.771532 11.59001,1.708332 5.79684,-2.49162 1.26279,-6.868775 4.26264,-10.297595 2.16329,-2.4726 6.01307,-2.168112 7.49285,-5.337972 m 173.73054,2.234472 -9.49651,4.468956 c 0.36714,-2.071116 1.96956,-5.048016 1.16259,-7.101912 -1.52052,-3.869904 -8.00812,0.32652 -10.10049,1.51572 0.31661,-2.842452 -1.10797,-4.334064 -3.25073,-1.587132 -2.19513,2.814036 -4.04746,6.580512 -5.12856,9.96642 5.51766,0.785819 10.13704,-6.3033 15.08272,-8.379288 -0.4652,1.10478 -0.93592,2.193864 -1.21543,3.365148 -2.37775,9.963479 11.02038,1.486008 14.06366,-0.572052 -2.47005,3.076872 -8.21623,5.100348 -9.39027,8.955767 -1.9281,6.331548 10.78681,3.616028 13.18402,1.739472 3.41745,-2.675268 0.1972,-5.689031 1.91661,-8.601131 1.61334,-2.732508 5.98993,-3.24672 8.25516,-5.445828 l -10.61377,2.793096 c -2.69218,-6.47556 -1.4439,-6.602148 4.46894,-7.26204 -4.6606,-7.188528 -10.9312,-0.36546 -8.93794,6.144804 m -373.71622,-6.144804 9.49653,-0.558624 -8.9379,7.820664 V 76.43012 c -2.26181,1.16082 -4.07212,2.808588 -6.14483,4.262304 -2.17056,1.522368 -5.05115,3.154788 -7.814,2.690136 -1.31692,-0.221472 -3.82344,-1.482228 -2.86212,-3.214272 1.13293,-2.04126 6.74729,-1.229196 8.79012,-3.372768 1.29762,-1.361604 1.90567,-3.440796 0.0391,-4.615896 -6.40288,-4.031064 -14.91269,7.857372 -20.49791,9.836688 l -0.55861,-0.558624 c 3.2747,-9.437472 -1.75271,-8.515584 -8.93791,-5.027568 l 1.11723,-3.35172 c -3.52865,-0.332976 -4.14831,2.51796 -6.4116,4.634652 -2.34591,2.193984 -5.49013,3.598632 -8.67111,3.744636 4.06088,-8.931096 -1.70068,-8.8302 -8.37929,-5.027568 0.12619,-1.13394 0.41366,-3.897516 -1.65971,-3.048024 -1.9709,0.807504 -8.10802,11.357208 -4.87004,11.378616 4.0113,0.02652 9.05122,-6.496752 12.67456,-8.330592 -1.99531,8.424336 1.76896,9.657263 8.9379,5.586192 -0.61448,6.698891 11.36067,-4.281552 13.96548,-5.586192 -2.66307,9.536447 2.93319,9.082619 10.05515,5.027568 0.97177,2.599776 2.78706,3.946943 5.5863,4.314623 4.49495,0.590424 8.89786,-1.725035 13.40675,-1.875695 4.44354,-0.148464 10.43553,1.822007 14.5241,-0.204444 l -10.05515,-1.67586 c 2.35487,-3.673332 9.71601,-5.869896 10.17496,-10.554132 0.51256,-5.231148 -11.14616,-2.649468 -12.96805,-0.05964 m 282.66131,-2.234484 -0.55862,0.558624 0.55862,-0.558624 M 333.46329,80.899064 c 2.78596,7.778939 12.32732,1.610028 13.96548,-3.910332 -4.32406,1.530096 -11.46588,8.968067 -9.49654,-0.558624 -5.20783,-1.490244 -7.97802,4.729044 -12.84823,5.586192 1.94927,-2.815596 4.16805,-6.033804 7.26211,-7.695024 1.26198,-0.677556 5.05334,-0.06396 5.52707,-1.516452 0.94311,-2.891676 -4.22148,-2.360076 -5.52714,-1.921572 -4.24713,1.426392 -8.29895,4.83864 -10.23094,8.897136 -4.10372,8.620703 8.48782,3.737364 11.34819,1.118676 M 503.84214,70.285292 c -0.0398,1.932144 -0.16942,3.758616 -0.86299,5.586312 -0.74481,1.962756 -4.6485,9.299795 -7.42472,5.835888 -3.74688,-4.674996 4.42436,-10.798176 8.28771,-11.4222 m -231.26834,12.289632 3.35172,-8.937912 c -6.78727,-0.872268 -10.68704,14.929439 0.55796,11.059116 1.804,-0.620904 3.40661,-1.699476 5.02823,-2.679828 4.75566,8.126651 19.58876,2.381556 21.22752,-5.586192 -2.26178,1.160832 -4.07218,2.808588 -6.14484,4.262304 -2.17055,1.522356 -5.0511,3.1548 -7.81399,2.690136 -1.3169,-0.221472 -3.82342,-1.482228 -2.8621,-3.214272 0.54761,-0.98664 1.94889,-0.907644 2.901,-0.997752 2.97558,-0.281604 11.38539,-5.566356 4.94142,-7.40748 -8.08484,-2.30994 -13.57035,9.449112 -21.18692,10.81188 M 144.09137,72.212132 c -3.52077,0.368076 -6.19773,1.133532 -8.2641,4.230288 -3.06471,4.59294 -0.79892,9.212927 4.91242,8.767763 7.73633,-0.602987 14.58646,-14.172587 3.35168,-12.998051 m 249.70279,0.006 c -3.67426,0.317892 -6.56351,1.002804 -8.74432,4.23588 -3.00861,4.460328 -0.72513,9.046679 4.83399,8.734619 7.61445,-0.427415 14.64585,-13.899311 3.91033,-12.970499 m -187.13743,1.418304 0.55863,0.558624 c -1.21587,2.545488 -2.95183,2.837748 -5.58619,2.234472 l 5.02756,-2.793096 m 85.46874,0 0.55863,0.558624 c -1.21586,2.545512 -2.95186,2.837736 -5.5862,2.234472 l 5.02757,-2.793096 m -148.07282,0.935256 c 5.36531,-0.717264 -0.0664,7.880988 -3.78893,8.108544 -4.93283,0.301524 0.66049,-7.690308 3.78893,-8.108544 m 249.16526,0 c 5.6834,-0.737496 -3e-5,7.900044 -3.81009,8.109972 -4.85631,0.267588 0.69575,-7.705848 3.81009,-8.109972 m 165.90994,0 c 5.68343,-0.737496 -2.7e-4,7.900056 -3.81017,8.109972 -4.85634,0.267588 0.6959,-7.70586 3.81017,-8.109972 m -69.25119,6.88542 -0.55861,0.558612 0.55861,-0.558612 m -93.2894,7.820663 c 0.9965,-1.797732 4.72664,-6.543563 7.28966,-4.811147 2.99269,2.022863 -1.68895,4.527647 -3.37486,4.718531 -1.29212,0.14628 -2.61693,0.0906 -3.9148,0.09264 m 196.63396,-5.586191 c 0.71408,5.593451 -3.97682,5.579483 -8.3793,5.586191 1.89244,-3.048624 4.83282,-5.041163 8.3793,-5.586191 M 62.532995,84.808844 c -1.718638,4.949387 -5.42905,10.453447 -3.351718,15.641336 -12.948697,5.09347 -25.685209,10.72145 -39.103345,14.52307 -2.655023,0.7522 -11.7220315,4.23072 -13.7617555,1.2179 -2.786652,-4.11608 8.4361325,-10.29521 10.9686605,-11.7484 13.336595,-7.652629 29.962871,-16.916975 45.248158,-19.633906 z"
       id="path1" /></g></svg>
